<svg xmlns="http://www.w3.org/2000/svg" xmlns:xlink="http://www.w3.org/1999/xlink" viewBox="0 0 381.22 199"><defs><style>.cls-1{fill:url(#New_Gradient_Swatch_1);}.cls-2{fill:url(#New_Gradient_Swatch_1-2);}.cls-3{fill:url(#New_Gradient_Swatch_1-3);}.cls-4{fill:url(#New_Gradient_Swatch_1-4);}.cls-5{fill:url(#New_Gradient_Swatch_1-5);}.cls-6{fill:url(#New_Gradient_Swatch_1-6);}.cls-7{fill:url(#New_Gradient_Swatch_1-7);}.cls-8{fill:url(#New_Gradient_Swatch_1-8);}.cls-9{fill:url(#New_Gradient_Swatch_1-9);}.cls-10{fill:url(#New_Gradient_Swatch_1-10);}.cls-11{font-size:30.76px;letter-spacing:-0.02em;}.cls-11,.cls-13,.cls-14{fill:#fff;}.cls-11,.cls-13{font-family:SimplifiedArabic-Bold, Simplified Arabic;font-weight:700;}.cls-12{letter-spacing:-0.1em;}.cls-13{font-size:15.49px;letter-spacing:0.07em;}.cls-14{font-size:23.88px;font-family:Poppins-SemiBold, Poppins;font-weight:600;}</style><linearGradient id="New_Gradient_Swatch_1" y1="58.94" x2="44.33" y2="58.94" gradientUnits="userSpaceOnUse"><stop offset="0" stop-color="#fc0"/><stop offset="0.23" stop-color="#fdc01a"/><stop offset="0.47" stop-color="#fcb72c"/><stop offset="0.73" stop-color="#fbb237"/><stop offset="1" stop-color="#fbb03b"/></linearGradient><linearGradient id="New_Gradient_Swatch_1-2" x1="44.33" y1="6.29" x2="57.84" y2="6.29" xlink:href="#New_Gradient_Swatch_1"/><linearGradient id="New_Gradient_Swatch_1-3" x1="57.84" y1="30.65" x2="70.1" y2="30.65" xlink:href="#New_Gradient_Swatch_1"/><linearGradient id="New_Gradient_Swatch_1-4" x1="44.95" y1="110.34" x2="57.21" y2="110.34" xlink:href="#New_Gradient_Swatch_1"/><linearGradient id="New_Gradient_Swatch_1-5" x1="83.52" y1="54.06" x2="112.61" y2="54.06" xlink:href="#New_Gradient_Swatch_1"/><linearGradient id="New_Gradient_Swatch_1-6" x1="115.71" y1="54.06" x2="148.09" y2="54.06" xlink:href="#New_Gradient_Swatch_1"/><linearGradient id="New_Gradient_Swatch_1-7" x1="152.08" y1="54.06" x2="182.08" y2="54.06" xlink:href="#New_Gradient_Swatch_1"/><linearGradient id="New_Gradient_Swatch_1-8" x1="182.05" y1="54.06" x2="208.56" y2="54.06" xlink:href="#New_Gradient_Swatch_1"/><linearGradient id="New_Gradient_Swatch_1-9" x1="211.62" y1="54.06" x2="237.01" y2="54.06" xlink:href="#New_Gradient_Swatch_1"/><linearGradient id="New_Gradient_Swatch_1-10" x1="238.02" y1="54.06" x2="269.06" y2="54.06" xlink:href="#New_Gradient_Swatch_1"/></defs><g id="Layer_2" data-name="Layer 2"><g id="Layer_1-2" data-name="Layer 1"><path class="cls-1" d="M44.33,82.05c-12.37,0-22.4-10.35-22.4-23.11s10-23.1,22.4-23.1V13.2C19.85,13.2,0,33.68,0,58.94s19.85,45.74,44.33,45.74Z"/><rect class="cls-2" x="44.33" width="13.52" height="12.57"/><rect class="cls-3" x="57.84" y="13.2" width="12.26" height="34.89"/><rect class="cls-4" x="44.95" y="104.68" width="12.26" height="11.32"/><path class="cls-5" d="M106.06,58.47l6.55,2.07q-3,10.79-13.89,10.78a14,14,0,0,1-11.31-5q-3.89-4.65-3.89-12,0-7.74,3.87-12.47,4.17-5.09,11.76-5.09a13.93,13.93,0,0,1,9.94,3.62,13.19,13.19,0,0,1,3.42,6.15l-6.68,1.59a7,7,0,0,0-2.47-4.1,7.14,7.14,0,0,0-4.56-1.49q-8.33,0-8.33,11.28,0,11.71,8.2,11.71Q104.45,65.55,106.06,58.47Z"/><path class="cls-6" d="M115.71,54.25q0-8.36,4.63-13.13,4.2-4.34,11.51-4.33,7.74,0,12.07,4.83,4.17,4.66,4.17,12.47t-4.15,12.4q-4.32,4.83-12,4.83t-12-4.73Q115.71,62,115.71,54.25Zm7-.23a13.78,13.78,0,0,0,2.13,8,8.91,8.91,0,0,0,14.26,0,14.13,14.13,0,0,0,2.05-8,13.76,13.76,0,0,0-2.05-8,8.08,8.08,0,0,0-7.13-3.41A8.19,8.19,0,0,0,124.74,46,13.78,13.78,0,0,0,122.67,54Z"/><path class="cls-7" d="M152.08,70.74V37.37h14.19a29.54,29.54,0,0,1,6.48.51,8.06,8.06,0,0,1,5.16,3.59,9.58,9.58,0,0,1,1.47,5.26q0,8-8.81,9.29a15.79,15.79,0,0,1,4.28,3.56A46,46,0,0,1,178,64.24l4.07,6.5h-8l-4.88-7.26c-1.47-2.18-2.27-3.36-2.41-3.54a7.69,7.69,0,0,0-3.18-2.76,11.05,11.05,0,0,0-3.39-.38h-1.37V70.74Zm6.73-19.25h5c2.48,0,3.91,0,4.28-.08a4.87,4.87,0,0,0,3.69-1.74,4.36,4.36,0,0,0,.69-2.51,3.68,3.68,0,0,0-3.44-4c-.49-.07-2.14-.1-4.94-.1h-5.26Z"/><path class="cls-8" d="M191.94,70.74V43h-9.89V37.37h26.51V43h-9.89V70.74Z"/><path class="cls-9" d="M211.62,70.74V37.37h24.74V43h-18V50.4h16.77V56H218.35v9.08H237v5.62Z"/><path class="cls-10" d="M238,70.74l11.41-17.4-10.35-16H247l6.68,10.73,6.55-10.73H268L257.65,53.56l11.41,17.18h-8.15L253.53,59.2l-7.44,11.54Z"/><text class="cls-11" transform="translate(276.12 66.94)">AI<tspan class="cls-12" x="26.14" y="0"> </tspan><tspan x="32.83" y="0">TECH</tspan></text><text class="cls-13" transform="translate(134.18 91.52) scale(0.95 1)">VIBE - VIEW - VISUAL</text><text class="cls-14" transform="translate(11.71 184.84)"><tspan xml:space="preserve">SPEED  |  QUALITY  |  RELIABILITY</tspan></text></g></g></svg>